{"title":"Minions.2015.HD-TS.READNFO.XVID.AC3-VAiN","uid":12076766,"size":1495722182,"categoryP":"video","categoryS":"movies","magnet":"?xt=urn:btih:1ecad91c821bc2d881c03b9c8f5b050d4e5041d3&amp;dn=Minions.2015.HD-TS.READNFO.XVID.AC3-VAiN&amp;tr=udp%3A%2F%2Ftracker.openbittorrent.com%3A80&amp;tr=udp%3A%2F%2Fopen.demonii.com%3A1337&amp;tr=udp%3A%2F%2Ftracker.coppersurfer.tk%3A6969&amp;tr=udp%3A%2F%2Fexodus.desync.com%3A6969","seeders":1626,"leechers":193,"uploader":"xxxlavalxxx","files":4,"time":1435659395,"description":" &lt;a href=&quot;http://extraimago.com/image/sfq&quot; rel=&quot;nofollow&quot; target=&quot;_NEW&quot;&gt;http://extraimago.com/image/sfq&lt;/a&gt;\n &lt;a href=&quot;\nhttp://www.imdb.com/title/tt2293640/&quot; rel=&quot;nofollow&quot; target=&quot;_NEW&quot;&gt;\nhttp://www.imdb.com/title/tt2293640/&lt;/a&gt;\n\n\nMinions Stuart, Kevin and Bob are recruited by Scarlet Overkill, a super-villain who, alongside her inventor husband Herb, hatches a plot to take over the world.\n\nDirectors: Kyle Balda, Pierre Coffin\nWriter: Brian Lynch\nStars: Pierre Coffin, Sandra Bullock, Jon Hamm\nGenres: Animation | Comedy | Family\nCountry: USA\nLanguage: English\n\n\nBasic Information\nFormat: AVI\nFormat/Info: Audio Video Interleave\nFile size: 1.37 GiB\nDuration: 1h 23mn\nOverall bit rate: 2 339 Kbps\nWriting application: VirtualDubMod 1.5.10.2 (build\n\n2540/release)\nWriting library: VirtualDubMod build 2540/release\n\nVideo\nID: 0\nFormat: MPEG-4 Visual\nFormat profile: Advanced Simple@L5\nFormat settings, BVOP: 2\nFormat settings, QPel: No\nFormat settings, GMC: No warppoints\nFormat settings, Matrix: Default (MPEG)\nMuxing mode: Packed bitstream\nCodec ID: XVID\nCodec ID/Hint: XviD\nDuration: 1h 23mn\nBit rate: 2 071 Kbps\nWidth: 680 pixels\nHeight: 336 pixels\nDisplay aspect ratio: 2.024\nFrame rate: 29.970 fps\nColor space: YUV\nChroma subsampling: 4:2:0\nBit depth: 8 bits\nScan type: Progressive\nCompression mode: Lossy\nBits/(Pixel*Frame): 0.302\nStream size: 1.21 GiB (89%)\nWriting library: XviD 66\n\nAudio\nID: 1\nFormat: AC-3\nFormat/Info: Audio Coding 3\nMode extension: CM (complete main)\nFormat settings, Endianness: Big\nCodec ID: 2000\nDuration: 1h 23mn\nBit rate mode: Constant\nBit rate: 256 Kbps\nChannel(s): 2 channels\nChannel positions: Front: L R\nSampling rate: 48.0 KHz\nBit depth: 16 bits\nCompression mode: Lossy\nStream size: 154 MiB (11%)\nAlignment: Split accross interleaves\nInterleave, duration: 33 ms (1.00 video frame)\nInterleave, preload duration: 500 ms\n\nE N C O D E R S . N O T E S\n\nSOURCE: ViDEO...EVE, HiVE CM8 HD Video: AUDiO...HiVE-CM8 release\nSAMPLE: Yippers\nADDED NOTE: well had both cams handy. not alota time so started to work. BOOM!!!\n\nThen it's dropped and all the work dun by EVE &amp; Hive. so grabbed Hive's flipped\n\nthrough and thought, has too much red in it for me liking so decided to work on\n\nthis (as all the work been done already) adjusted rgb, lvls, sharp, noise, gain and\n\na few other tidbits\n\n*READNFO* begin audio is pretty loud and abbresive but damn gud with that\n\nexception. Cheers to Hive for the lipsync and S4NDM4N for the cap... also in via\n\nthe screens you can see 2 screen caps the show the difference in vids used. still\n\npretty damn nice copy... cheers to all involved\n\n &lt;a href=&quot;\nhttp://extraimago.com/image/sfy&quot; rel=&quot;nofollow&quot; target=&quot;_NEW&quot;&gt;\nhttp://extraimago.com/image/sfy&lt;/a&gt; &lt;a href=&quot;\nhttp://extraimago.com/image/sfL&quot; rel=&quot;nofollow&quot; target=&quot;_NEW&quot;&gt;\nhttp://extraimago.com/image/sfL&lt;/a&gt; &lt;a href=&quot;\nhttp://extraimago.com/image/sfQ&quot; rel=&quot;nofollow&quot; target=&quot;_NEW&quot;&gt;\nhttp://extraimago.com/image/sfQ&lt;/a&gt; &lt;a href=&quot;\nhttp://extraimago.com/image/sfR&quot; rel=&quot;nofollow&quot; target=&quot;_NEW&quot;&gt;\nhttp://extraimago.com/image/sfR&lt;/a&gt; &lt;a href=&quot;\nhttp://extraimago.com/image/sfm&quot; rel=&quot;nofollow&quot; target=&quot;_NEW&quot;&gt;\nhttp://extraimago.com/image/sfm&lt;/a&gt; &lt;a href=&quot;\nhttp://extraimago.com/image/sfi&quot; rel=&quot;nofollow&quot; target=&quot;_NEW&quot;&gt;\nhttp://extraimago.com/image/sfi&lt;/a&gt; &lt;a href=&quot;\nhttp://extraimago.com/image/sfl&quot; rel=&quot;nofollow&quot; target=&quot;_NEW&quot;&gt;\nhttp://extraimago.com/image/sfl&lt;/a&gt; &lt;a href=&quot;\nhttp://extraimago.com/image/sfI&quot; rel=&quot;nofollow&quot; target=&quot;_NEW&quot;&gt;\nhttp://extraimago.com/image/sfI&lt;/a&gt;","torrent":{"xt":"urn:btih:1ecad91c821bc2d881c03b9c8f5b050d4e5041d3","amp;dn":"Minions.2015.HD-TS.READNFO.XVID.AC3-VAiN","amp;tr":["udp%3A%2F%2Ftracker.openbittorrent.com%3A80","udp%3A%2F%2Fopen.demonii.com%3A1337","udp%3A%2F%2Ftracker.coppersurfer.tk%3A6969","udp%3A%2F%2Fexodus.desync.com%3A6969"],"infoHash":"1ecad91c821bc2d881c03b9c8f5b050d4e5041d3","infoHashBuffer":{"type":"Buffer","data":[30,202,217,28,130,27,194,216,129,192,59,156,143,91,5,13,78,80,65,211]},"announce":[],"urlList":[]}}